<svg xmlns="http://www.w3.org/2000/svg" viewBox="0 0 24 24" role="img" aria-label="GitHub">
  <path fill="#ffffff" d="M12 1.25A10.75 10.75 0 0 0 1.25 12a10.76 10.76 0 0 0 7.35 10.22c.55.1.75-.23.75-.52v-1.98c-2.99.65-3.62-1.27-3.62-1.27c-.5-1.24-1.21-1.57-1.21-1.57c-.99-.67.08-.66.08-.66c1.09.08 1.66 1.11 1.66 1.11c.97 1.66 2.55 1.18 3.17.9c.1-.69.38-1.18.68-1.45c-2.39-.27-4.9-1.19-4.9-5.28c0-1.17.42-2.12 1.1-2.86c-.11-.27-.48-1.36.11-2.84c0 0 .9-.29 2.94 1.09a10.16 10.16 0 0 1 5.35 0c2.04-1.38 2.94-1.09 2.94-1.09c.59 1.48.22 2.57.11 2.84c.69.74 1.1 1.69 1.1 2.86c0 4.1-2.52 5.01-4.93 5.27c.39.34.73 1 .73 2.02v2.99c0 .29.2.63.76.52A10.76 10.76 0 0 0 22.75 12A10.75 10.75 0 0 0 12 1.25"/>
</svg>
