<svg xmlns="http://www.w3.org/2000/svg" viewBox="0 0 24 24" role="img" aria-label="WhatsApp">
  <path fill="#25D366" d="M12 2a9.9 9.9 0 0 0-8.53 14.9L2 22l5.26-1.39A10 10 0 1 0 12 2m0 18.17a8.2 8.2 0 0 1-4.18-1.14l-.3-.18l-3.12.82l.83-3.05l-.2-.31A8.2 8.2 0 1 1 12 20.17m4.5-6.12c-.25-.13-1.49-.74-1.72-.82s-.4-.13-.57.12s-.65.82-.8.99s-.28.19-.53.06s-1.05-.38-2-1.2c-.74-.66-1.23-1.47-1.38-1.72s-.02-.39.11-.52c.12-.12.25-.31.37-.46c.12-.15.16-.25.25-.42c.08-.17.04-.31-.02-.44c-.06-.12-.56-1.36-.76-1.86c-.2-.48-.4-.42-.56-.43h-.48c-.17 0-.44.06-.67.31s-.88.86-.88 2.1s.9 2.44 1.03 2.6s1.77 2.7 4.29 3.79c.6.26 1.06.41 1.42.53c.6.19 1.14.16 1.57.1c.48-.07 1.49-.61 1.7-1.2s.21-1.09.15-1.2s-.23-.17-.48-.29"/>
</svg>
