<svg xmlns="http://www.w3.org/2000/svg" viewBox="0 0 64 64" role="img" aria-label="Portfolio">
  <defs>
    <linearGradient id="apple-fab-bg" x1="0%" y1="0%" x2="100%" y2="100%">
      <stop offset="0%" stop-color="#020617"/>
      <stop offset="55%" stop-color="#1e1b4b"/>
      <stop offset="100%" stop-color="#831843"/>
    </linearGradient>
    <linearGradient id="apple-fab-body" x1="0%" y1="0%" x2="0%" y2="100%">
      <stop offset="0%" stop-color="#e0f7ff"/>
      <stop offset="100%" stop-color="#8be9ff"/>
    </linearGradient>
    <linearGradient id="apple-fab-wing" x1="0%" y1="0%" x2="100%" y2="100%">
      <stop offset="0%" stop-color="#7c3aed"/>
      <stop offset="100%" stop-color="#ec4899"/>
    </linearGradient>
  </defs>
  <rect width="64" height="64" rx="14" fill="url(#apple-fab-bg)" stroke="#22d3ee" stroke-width="2"/>
  <g fill="none" stroke-linecap="round" stroke-linejoin="round">
    <path d="M32 6c8 6 13 16 13 27v8H19v-8c0-11 5-21 13-27z" fill="url(#apple-fab-body)" stroke="#22d3ee" stroke-width="2"/>
    <circle cx="32" cy="23" r="5.5" fill="#020617" stroke="#22d3ee" stroke-width="2"/>
    <path d="M19 34l-7 6l7 2z" fill="url(#apple-fab-wing)" stroke="#22d3ee" stroke-width="2"/>
    <path d="M45 34l7 6l-7 2z" fill="url(#apple-fab-wing)" stroke="#22d3ee" stroke-width="2"/>
    <path d="M28 41h8v7h-8z" fill="#0b1120" stroke="#22d3ee" stroke-width="1.8"/>
    <path d="M32 48c3 3 3 6 0 10c-3-4-3-7 0-10z" fill="#f59e0b" stroke="#fb7185" stroke-width="1.3"/>
  </g>
</svg>
